<svg xmlns="http://www.w3.org/2000/svg" xmlns:xlink="http://www.w3.org/1999/xlink" width="286.336" height="304.34" viewBox="0 0 286.336 304.34">
  <defs>
    <filter id="Path_13" x="132.836" y="0" width="29" height="49" filterUnits="userSpaceOnUse">
      <feOffset dy="3" input="SourceAlpha"/>
      <feGaussianBlur stdDeviation="3" result="blur"/>
      <feFlood flood-opacity="0.161"/>
      <feComposite operator="in" in2="blur"/>
      <feComposite in="SourceGraphic"/>
    </filter>
    <filter id="Path_9" x="186.073" y="17.164" width="43.026" height="50.347" filterUnits="userSpaceOnUse">
      <feOffset dy="3" input="SourceAlpha"/>
      <feGaussianBlur stdDeviation="3" result="blur-2"/>
      <feFlood flood-opacity="0.161"/>
      <feComposite operator="in" in2="blur-2"/>
      <feComposite in="SourceGraphic"/>
    </filter>
    <filter id="Path_21" x="6.164" y="67.79" width="50.347" height="43.026" filterUnits="userSpaceOnUse">
      <feOffset dy="3" input="SourceAlpha"/>
      <feGaussianBlur stdDeviation="3" result="blur-3"/>
      <feFlood flood-opacity="0.161"/>
      <feComposite operator="in" in2="blur-3"/>
      <feComposite in="SourceGraphic"/>
    </filter>
    <filter id="Path_7" x="228.825" y="68.298" width="50.347" height="43.026" filterUnits="userSpaceOnUse">
      <feOffset dy="3" input="SourceAlpha"/>
      <feGaussianBlur stdDeviation="3" result="blur-4"/>
      <feFlood flood-opacity="0.161"/>
      <feComposite operator="in" in2="blur-4"/>
      <feComposite in="SourceGraphic"/>
    </filter>
    <filter id="Path_18" x="56.237" y="16.664" width="43.026" height="50.347" filterUnits="userSpaceOnUse">
      <feOffset dy="3" input="SourceAlpha"/>
      <feGaussianBlur stdDeviation="3" result="blur-5"/>
      <feFlood flood-opacity="0.161"/>
      <feComposite operator="in" in2="blur-5"/>
      <feComposite in="SourceGraphic"/>
    </filter>
    <filter id="Path_17" x="126.136" y="255.153" width="29.539" height="49.187" filterUnits="userSpaceOnUse">
      <feOffset dy="3" input="SourceAlpha"/>
      <feGaussianBlur stdDeviation="3" result="blur-6"/>
      <feFlood flood-opacity="0.161"/>
      <feComposite operator="in" in2="blur-6"/>
      <feComposite in="SourceGraphic"/>
    </filter>
    <filter id="Path_19" x="59.029" y="237.74" width="42.65" height="50.446" filterUnits="userSpaceOnUse">
      <feOffset dy="3" input="SourceAlpha"/>
      <feGaussianBlur stdDeviation="3" result="blur-7"/>
      <feFlood flood-opacity="0.161"/>
      <feComposite operator="in" in2="blur-7"/>
      <feComposite in="SourceGraphic"/>
    </filter>
    <filter id="Path_8" x="230.551" y="191.569" width="50.446" height="42.65" filterUnits="userSpaceOnUse">
      <feOffset dy="3" input="SourceAlpha"/>
      <feGaussianBlur stdDeviation="3" result="blur-8"/>
      <feFlood flood-opacity="0.161"/>
      <feComposite operator="in" in2="blur-8"/>
      <feComposite in="SourceGraphic"/>
    </filter>
    <filter id="Path_20" x="8.02" y="194.639" width="50.238" height="43.395" filterUnits="userSpaceOnUse">
      <feOffset dy="3" input="SourceAlpha"/>
      <feGaussianBlur stdDeviation="3" result="blur-9"/>
      <feFlood flood-opacity="0.161"/>
      <feComposite operator="in" in2="blur-9"/>
      <feComposite in="SourceGraphic"/>
    </filter>
    <filter id="Path_10" x="188.481" y="236.078" width="43.395" height="50.238" filterUnits="userSpaceOnUse">
      <feOffset dy="3" input="SourceAlpha"/>
      <feGaussianBlur stdDeviation="3" result="blur-10"/>
      <feFlood flood-opacity="0.161"/>
      <feComposite operator="in" in2="blur-10"/>
      <feComposite in="SourceGraphic"/>
    </filter>
  </defs>
  <g id="Group_53" data-name="Group 53" transform="translate(-44.164 -150)">
    <g id="Group_13" data-name="Group 13" transform="translate(44.164 156)">
      <g id="Path_6" data-name="Path 6" transform="translate(286.336 139.557) rotate(90)" fill="#ffc107">
        <path d="M 5.5 30 C 3.01869010925293 30 1 27.98130989074707 1 25.5 L 1 5.5 C 1 3.01869010925293 3.01869010925293 1 5.5 1 C 7.98130989074707 1 10 3.01869010925293 10 5.5 L 10 25.5 C 10 27.98130989074707 7.98130989074707 30 5.5 30 Z" stroke="none"/>
        <path d="M 5.5 2 C 3.570089817047119 2 2 3.570089340209961 2 5.5 L 2 25.5 C 2 27.42991065979004 3.570089817047119 29 5.5 29 C 7.429909706115723 29 9 27.42991065979004 9 25.5 L 9 5.5 C 9 3.570089340209961 7.429909706115723 2 5.5 2 M 5.5 0 C 8.537569999694824 0 11 2.462429046630859 11 5.5 L 11 25.5 C 11 28.53755950927734 8.537569999694824 31 5.5 31 C 2.462430000305176 31 0 28.53755950927734 0 25.5 L 0 5.5 C 0 2.462429046630859 2.462430000305176 0 5.5 0 Z" stroke="none" fill="#ffc107"/>
      </g>
      <g id="Path_22" data-name="Path 22" transform="translate(0 151.065) rotate(-90)" fill="#ffc107">
        <path d="M 5.5 30 C 3.01869010925293 30 1 27.98130989074707 1 25.5 L 1 5.5 C 1 3.01869010925293 3.01869010925293 1 5.5 1 C 7.98130989074707 1 10 3.01869010925293 10 5.5 L 10 25.5 C 10 27.98130989074707 7.98130989074707 30 5.5 30 Z" stroke="none"/>
        <path d="M 5.5 2 C 3.570089817047119 2 2 3.570089340209961 2 5.5 L 2 25.5 C 2 27.42991065979004 3.570089817047119 29 5.5 29 C 7.429909706115723 29 9 27.42991065979004 9 25.5 L 9 5.5 C 9 3.570089340209961 7.429909706115723 2 5.5 2 M 5.5 0 C 8.537569999694824 0 11 2.462429046630859 11 5.5 L 11 25.5 C 11 28.53755950927734 8.537569999694824 31 5.5 31 C 2.462430000305176 31 0 28.53755950927734 0 25.5 L 0 5.5 C 0 2.462429046630859 2.462430000305176 0 5.5 0 Z" stroke="none" fill="#ffc107"/>
      </g>
      <g transform="matrix(1, 0, 0, 1, 0, -6)" filter="url(#Path_13)">
        <path id="Path_13-2" data-name="Path 13" d="M5.5,0A5.5,5.5,0,0,1,11,5.5v20a5.5,5.5,0,0,1-11,0V5.5A5.5,5.5,0,0,1,5.5,0Z" transform="translate(141.84 6)" fill="#ffc107"/>
      </g>
      <g transform="matrix(1, 0, 0, 1, 0, -6)" filter="url(#Path_9)">
        <g id="Path_9-2" data-name="Path 9" transform="translate(210.57 23.16) rotate(30)" fill="#ffc107">
          <path d="M 5.5 30 C 3.01869010925293 30 1 27.98130989074707 1 25.5 L 1 5.5 C 1 3.01869010925293 3.01869010925293 1 5.5 1 C 7.98130989074707 1 10 3.01869010925293 10 5.5 L 10 25.5 C 10 27.98130989074707 7.98130989074707 30 5.5 30 Z" stroke="none"/>
          <path d="M 5.5 2 C 3.570089817047119 2 2 3.570089340209961 2 5.5 L 2 25.5 C 2 27.42991065979004 3.570089817047119 29 5.5 29 C 7.429909706115723 29 9 27.42991065979004 9 25.5 L 9 5.5 C 9 3.570089340209961 7.429909706115723 2 5.5 2 M 5.5 0 C 8.537569999694824 0 11 2.462429046630859 11 5.5 L 11 25.5 C 11 28.53755950927734 8.537569999694824 31 5.5 31 C 2.462430000305176 31 0 28.53755950927734 0 25.5 L 0 5.5 C 0 2.462429046630859 2.462430000305176 0 5.5 0 Z" stroke="none" fill="#ffc107"/>
        </g>
      </g>
      <g transform="matrix(1, 0, 0, 1, 0, -6)" filter="url(#Path_21)">
        <g id="Path_21-2" data-name="Path 21" transform="translate(15.16 83.32) rotate(-60)" fill="#ffc107">
          <path d="M 5.5 30 C 3.01869010925293 30 1 27.98130989074707 1 25.5 L 1 5.5 C 1 3.01869010925293 3.01869010925293 1 5.5 1 C 7.98130989074707 1 10 3.01869010925293 10 5.5 L 10 25.5 C 10 27.98130989074707 7.98130989074707 30 5.5 30 Z" stroke="none"/>
          <path d="M 5.5 2 C 3.570089817047119 2 2 3.570089340209961 2 5.5 L 2 25.5 C 2 27.42991065979004 3.570089817047119 29 5.5 29 C 7.429909706115723 29 9 27.42991065979004 9 25.5 L 9 5.5 C 9 3.570089340209961 7.429909706115723 2 5.5 2 M 5.5 0 C 8.537569999694824 0 11 2.462429046630859 11 5.5 L 11 25.5 C 11 28.53755950927734 8.537569999694824 31 5.5 31 C 2.462430000305176 31 0 28.53755950927734 0 25.5 L 0 5.5 C 0 2.462429046630859 2.462430000305176 0 5.5 0 Z" stroke="none" fill="#ffc107"/>
        </g>
      </g>
      <g transform="matrix(1, 0, 0, 1, 0, -6)" filter="url(#Path_7)">
        <g id="Path_7-2" data-name="Path 7" transform="translate(264.67 74.3) rotate(60)" fill="#ffc107">
          <path d="M 5.5 30 C 3.01869010925293 30 1 27.98130989074707 1 25.5 L 1 5.5 C 1 3.01869010925293 3.01869010925293 1 5.5 1 C 7.98130989074707 1 10 3.01869010925293 10 5.5 L 10 25.5 C 10 27.98130989074707 7.98130989074707 30 5.5 30 Z" stroke="none"/>
          <path d="M 5.5 2 C 3.570089817047119 2 2 3.570089340209961 2 5.5 L 2 25.5 C 2 27.42991065979004 3.570089817047119 29 5.5 29 C 7.429909706115723 29 9 27.42991065979004 9 25.5 L 9 5.5 C 9 3.570089340209961 7.429909706115723 2 5.5 2 M 5.5 0 C 8.537569999694824 0 11 2.462429046630859 11 5.5 L 11 25.5 C 11 28.53755950927734 8.537569999694824 31 5.5 31 C 2.462430000305176 31 0 28.53755950927734 0 25.5 L 0 5.5 C 0 2.462429046630859 2.462430000305176 0 5.5 0 Z" stroke="none" fill="#ffc107"/>
        </g>
      </g>
      <g transform="matrix(1, 0, 0, 1, 0, -6)" filter="url(#Path_18)">
        <g id="Path_18-2" data-name="Path 18" transform="translate(65.24 28.16) rotate(-30)" fill="#ffc107">
          <path d="M 5.5 30 C 3.01869010925293 30 1 27.98130989074707 1 25.5 L 1 5.5 C 1 3.01869010925293 3.01869010925293 1 5.5 1 C 7.98130989074707 1 10 3.01869010925293 10 5.5 L 10 25.5 C 10 27.98130989074707 7.98130989074707 30 5.5 30 Z" stroke="none"/>
          <path d="M 5.5 2 C 3.570089817047119 2 2 3.570089340209961 2 5.5 L 2 25.5 C 2 27.42991065979004 3.570089817047119 29 5.5 29 C 7.429909706115723 29 9 27.42991065979004 9 25.5 L 9 5.5 C 9 3.570089340209961 7.429909706115723 2 5.5 2 M 5.5 0 C 8.537569999694824 0 11 2.462429046630859 11 5.5 L 11 25.5 C 11 28.53755950927734 8.537569999694824 31 5.5 31 C 2.462430000305176 31 0 28.53755950927734 0 25.5 L 0 5.5 C 0 2.462429046630859 2.462430000305176 0 5.5 0 Z" stroke="none" fill="#ffc107"/>
        </g>
      </g>
      <g transform="matrix(1, 0, 0, 1, 0, -6)" filter="url(#Path_17)">
        <path id="Path_17-2" data-name="Path 17" d="M5.5,0A5.5,5.5,0,0,1,11,5.5v20a5.5,5.5,0,0,1-11,0V5.5A5.5,5.5,0,0,1,5.5,0Z" transform="translate(146.68 292.15) rotate(179)" fill="#ffc107"/>
      </g>
      <g transform="matrix(1, 0, 0, 1, 0, -6)" filter="url(#Path_19)">
        <path id="Path_19-2" data-name="Path 19" d="M5.5,0A5.5,5.5,0,0,1,11,5.5v20a5.5,5.5,0,0,1-11,0V5.5A5.5,5.5,0,0,1,5.5,0Z" transform="matrix(-0.87, -0.48, 0.48, -0.87, 77.65, 276.19)" fill="#ffc107"/>
      </g>
      <g transform="matrix(1, 0, 0, 1, 0, -6)" filter="url(#Path_8)">
        <g id="Path_8-2" data-name="Path 8" transform="matrix(-0.48, 0.87, -0.87, -0.48, 272, 212.6)" fill="#ffc107">
          <path d="M 5.5 30 C 3.01869010925293 30 1 27.98130989074707 1 25.5 L 1 5.5 C 1 3.01869010925293 3.01869010925293 1 5.5 1 C 7.98130989074707 1 10 3.01869010925293 10 5.5 L 10 25.5 C 10 27.98130989074707 7.98130989074707 30 5.5 30 Z" stroke="none"/>
          <path d="M 5.5 2 C 3.570089817047119 2 2 3.570089340209961 2 5.5 L 2 25.5 C 2 27.42991065979004 3.570089817047119 29 5.5 29 C 7.429909706115723 29 9 27.42991065979004 9 25.5 L 9 5.5 C 9 3.570089340209961 7.429909706115723 2 5.5 2 M 5.5 0 C 8.537569999694824 0 11 2.462429046630859 11 5.5 L 11 25.5 C 11 28.53755950927734 8.537569999694824 31 5.5 31 C 2.462430000305176 31 0 28.53755950927734 0 25.5 L 0 5.5 C 0 2.462429046630859 2.462430000305176 0 5.5 0 Z" stroke="none" fill="#ffc107"/>
        </g>
      </g>
      <g transform="matrix(1, 0, 0, 1, 0, -6)" filter="url(#Path_20)">
        <path id="Path_20-2" data-name="Path 20" d="M5.5,0A5.5,5.5,0,0,1,11,5.5v20a5.5,5.5,0,0,1-11,0V5.5A5.5,5.5,0,0,1,5.5,0Z" transform="translate(22.69 226.03) rotate(-121)" fill="#ffc107"/>
      </g>
      <g transform="matrix(1, 0, 0, 1, 0, -6)" filter="url(#Path_10)">
        <path id="Path_10-2" data-name="Path 10" d="M5.5,0A5.5,5.5,0,0,1,11,5.5v20a5.5,5.5,0,0,1-11,0V5.5A5.5,5.5,0,0,1,5.5,0Z" transform="translate(222.88 268.65) rotate(149)" fill="#ffc107"/>
      </g>
    </g>
  </g>
</svg>
